<?xml version="1.0" standalone="no"?>
<!DOCTYPE svg PUBLIC "-//W3C//DTD SVG 20010904//EN"
 "http://www.w3.org/TR/2001/REC-SVG-20010904/DTD/svg10.dtd">
<svg version="1.0" xmlns="http://www.w3.org/2000/svg"
 width="512.000000pt" height="512.000000pt" viewBox="0 0 512.000000 512.000000"
 preserveAspectRatio="xMidYMid meet">

<g transform="translate(0.000000,512.000000) scale(0.100000,-0.100000)"
fill="#ffc109" stroke="none">
<path d="M1930 5050 c-283 -7 -360 -21 -519 -96 -121 -57 -198 -113 -296 -215
-223 -233 -338 -536 -322 -848 18 -357 156 -712 406 -1045 116 -155 176 -221
502 -551 292 -296 359 -377 393 -478 38 -112 2 -206 -99 -260 -40 -22 -45 -22
-741 -25 l-701 -3 -6 -487 c-4 -268 -7 -598 -7 -734 l0 -248 1123 0 c620 0
1177 5 1245 10 367 29 649 128 875 310 192 154 319 366 385 643 25 105 27 126
26 352 0 213 -2 250 -22 333 -30 127 -56 200 -112 320 -127 267 -290 455 -680
781 -240 201 -319 280 -358 362 -85 174 -51 344 76 376 27 7 285 9 761 5 l721
-5 0 757 0 756 -1202 -2 c-662 -1 -1313 -4 -1448 -8z"/>
</g>
</svg>
